<?xml version="1.0" encoding="utf-8"?>
<!-- Generator: Adobe Illustrator 23.0.1, SVG Export Plug-In . SVG Version: 6.00 Build 0)  -->
<svg version="1.1" xmlns="http://www.w3.org/2000/svg" xmlns:xlink="http://www.w3.org/1999/xlink" x="0px" y="0px"
	 viewBox="0 0 432 432" style="enable-background:new 0 0 432 432;" xml:space="preserve">
<g id="Layer_1">
</g>
<g id="Layer_2">
</g>
<g id="Layer_3">
	<path d="M142.64,259.95l-25.94-1.69v-0.57l25.94-1.45V259.95z M361.9,243.93c0,3.04-0.27,4.39-3.11,6.55
		c-2.05,1.56-2.29,2.63-2.29,3.29v8.01l-1.27,0.42c-7.7,2.51-16.64,4.3-28.14,5.63c-20.99,2.43-29.97,6.78-40.37,12.66
		c-11.7,6.61-22.06,19.16-26.74,28.03c-4.89,9.26-1.42,17.99,11.24,28.29c13.58,11.05,30.62,15.13,30.79,15.17l0.8,0.19l6.6,11.89
		v20.72h-44.05l-0.36-0.16c-22.42-9.97-34.06-11.31-42.5-11.31s-20.07,1.34-42.5,11.31l-0.36,0.16h-44.05v-20.72l6.6-11.89l0.8-0.19
		c0.17-0.04,17.21-4.11,30.79-15.17c12.65-10.29,16.11-19.01,11.24-28.29c-1.94-3.69-4.41-7.27-7.15-10.34
		c-2.49-2.79-6.97-4.15-13.7-4.15h-14.79l-0.51-1.02c-0.33-0.66-1.29-1.36-2.63-1.36h-12.7c-8.7,0-17.23-2.84-32.6-10.84
		c-15.8-8.23-30.3-21.16-34.49-25.8c-5.44-6.02-5.67-11.14-3.58-13.35c1.9-2.01,8.56-3.06,14.15-3.06h68.7
		c3.43-1.99,7.02-2.7,13.37-2.7h47.03c-0.23-0.18-0.45-0.35-0.69-0.54c-5.12-4.05-17-14.35-20.99-18.04
		c-3.06-2.83-6.19-6.85-7.93-9.43c-1.74-2.58-4.3-6.98-5.78-10.88c-1.93-5.08-7.04-19.95-8.87-26.21
		c-1.62-5.54-2.17-8.11,1.81-11.06l0,0c3.39-2.51,6.42-4.49,12.67-7.73c6.74-3.49,9.57-3.98,13.05-0.04
		c1.64,1.86,9.66,12.63,16.57,21.98c3.76-3.71,10.56-10.33,15.89-15.06c7.68-6.82,11.77-10.37,20.75-16.43
		c8.92-6.02,71.88-46.39,72.51-46.8l0.94-0.6l0.94,0.59c4.8,3.02,8.6,6.49,10.98,10.02s4.18,8.35,5.19,13.93l0.2,1.1l-0.91,0.64
		c-0.62,0.44-61.61,43.72-70.53,49.74c-8.98,6.06-13.8,8.53-23,13.1c-6.38,3.17-15.07,7-19.91,9.1
		c6.09,9.91,13.08,21.37,14.19,23.59c2.35,4.7,0.83,7.14-4.92,12.08c-3.82,3.28-6.42,5.27-8.91,6.95h111.8
		c12.76,0,21.44,0.22,25.28,1.34C361.01,238.57,361.9,240.7,361.9,243.93z M144.4,242.29H77.04c-6.51,0-10.86,1.38-11.49,1.93
		c-0.09,0.1-0.16,0.28-0.2,0.51c4.27,2.83,18.03,11.57,30.09,15.29c13.82,4.27,37.81,4.76,48.96,4.79v-16.85l-59.47-2.29v-0.87
		l59.47-1.44V242.29z M177.42,366.29l-38.12,0.08v14.71h38.12V366.29z M207.61,232.61c1.97,1.55,3.15,2.41,4.02,2.78
		c-0.08-2.51,0.23-6.25,2.25-9.17c3.04-4.4,9.36-6.58,9.36-6.58l-12.86,0.06c-11.9-19.08-36.11-52.11-41.46-59.38
		c-0.26,0.17-0.52,0.35-0.77,0.52l32.27,47.81l-1.84,1.24l-33.96-46.37c-0.15,0.18-0.27,0.38-0.35,0.61l31.95,47.34l-1.84,1.24
		l-27.46-37.49c0.38,1.17,0.79,2.41,1.21,3.68l23.9,35.41l-1.84,1.24l-17.84-24.36c0.66,1.87,1.24,3.46,1.66,4.58
		c1.28,3.39,3.64,7.54,5.41,10.16c1.77,2.62,4.74,6.36,7.4,8.82C190.78,218.4,202.54,228.6,207.61,232.61z M158.85,273.01
		c-1.51-3.45-1.65-6.92-1.65-11.16v-11.2c-3.43-0.69-5.3-3.13-5.3-7.07c0-1.32,0.01-2.46,0.2-3.47c-1.64,0.32-2.87,0.79-4,1.4v31.51
		H158.85z M305.73,366.36l-38.12-0.08v14.79h38.12V366.36z M301.53,357.45l-38.72,0.91c0.6,0.68,1.16,1.3,1.67,1.87l38.97,0.68
		L301.53,357.45z M290.32,351.99l-32.52,0.76c0.5,0.56,1,1.11,1.49,1.67l40.16,0.7C297.57,354.59,294.31,353.59,290.32,351.99z
		 M278.99,346.54l-26.23,0.61c0.42,0.47,0.87,0.96,1.32,1.46l29.8,0.52C282.28,348.34,280.65,347.48,278.99,346.54z M247.17,341.56
		c0.46,0.4,0.93,0.81,1.38,1.23l25.12,0.44c-1.03-0.7-2.06-1.44-3.07-2.22L247.17,341.56z M264.12,335.44l-25.08,0.59
		c0.56,0.29,1.11,0.59,1.66,0.9l25.51,0.44C265.47,336.73,264.78,336.08,264.12,335.44z M217.61,330.81l42.89,0.75
		c-0.48-0.57-0.93-1.15-1.35-1.72L217.61,330.81z M217.61,325.09l38.96,0.68c-0.27-0.52-0.53-1.05-0.75-1.57L217.61,325.09z
		 M254.49,320.01c-0.1-0.5-0.17-1-0.23-1.5l-36.65,0.86L254.49,320.01z M347.71,260.52H160.89v1.34c0,4.94,0.16,8.19,2.42,11.69
		c2.5,3.89,12.45,16.23,17.37,22.22c0.33,0.37,0.66,0.75,0.98,1.13h78.2l-64-1.28c-0.44-0.54-0.92-1.12-1.42-1.74l67.12-1
		l-69.06-1.38c-0.43-0.53-0.87-1.07-1.31-1.62l70.37-1.05l-72.38-1.45c-0.4-0.5-0.8-1-1.21-1.51l73.58-1.1l-75.65-1.51
		c-0.37-0.47-0.74-0.94-1.1-1.4l76.75-1.14l-78.86-1.58c-0.34-0.44-0.67-0.87-0.98-1.29l79.84-1.19l-81.93-1.64
		c-0.31-0.44-0.59-0.84-0.82-1.18l82.75-1.23l-84.27-1.69c-0.14-0.37-0.26-0.73-0.37-1.11l84.64-1.26l-85.18-1.7
		c-0.04-0.35-0.07-0.71-0.09-1.08l155.88-2.32C338,262.64,343.1,261.68,347.71,260.52z M355.12,240.71
		c-4-1.03-14.43-1.12-23.96-1.12H159.1c-2.38,0-3.01,0.4-3.18,0.64c-0.33,0.48-0.33,1.84-0.33,3.28c0,2.34,0.61,3.66,3.75,3.66
		h184.83l-132.13-3.09v-0.87L355.12,240.71z M209.58,127.24c0.15,1.87,0.25,3.74,0.45,5.61c0.35,3.74,0.79,7.48,1.51,11.22h0.5
		c0.72-3.74,1.16-7.48,1.51-11.22c0.2-1.87,0.3-3.74,0.45-5.61l0.29-5.61c0.14-3.74,0.13-7.48-0.03-11.22
		c-0.19-3.74-0.34-7.48-0.47-11.22l-0.34-11.22l-0.41-11.22c-0.34-7.48-0.6-14.97-1-22.45h-0.5c-0.4,7.48-0.66,14.97-1,22.45
		l-0.41,11.22l-0.34,11.22c-0.14,3.74-0.29,7.48-0.48,11.22c-0.16,3.74-0.17,7.48-0.02,11.22L209.58,127.24z M185.85,96.69
		c0.59,4.11,1.16,8.23,1.7,12.35c0.56,4.12,1.27,8.21,2.14,12.27l1.37,6.08c0.51,2.02,0.96,4.05,1.52,6.06
		c1.06,4.03,2.22,8.04,3.65,12.01l0.49-0.09c-0.02-4.21-0.3-8.38-0.68-12.53c-0.16-2.08-0.43-4.14-0.64-6.21l-0.79-6.18
		c-0.58-4.11-1.31-8.2-2.19-12.26c-0.9-4.06-1.77-8.12-2.63-12.18l-5.06-24.4c-1.77-8.12-3.48-16.25-5.31-24.36l-0.49,0.09
		c1.05,8.25,2.23,16.47,3.34,24.71L185.85,96.69z M161.99,100.31l2.92,9.01c0.95,3.01,1.89,6.03,2.79,9.06
		c0.93,3.02,2,5.99,3.22,8.91c1.21,2.92,2.53,5.8,3.94,8.64c1.41,2.85,2.9,5.66,4.66,8.38l0.47-0.17c-0.41-3.21-1.07-6.33-1.82-9.41
		c-0.75-3.08-1.6-6.14-2.54-9.15c-0.94-3.02-2.03-5.98-3.26-8.89c-1.25-2.9-2.48-5.82-3.69-8.74l-3.56-8.78l-3.63-8.76
		c-2.48-5.82-4.88-11.66-7.42-17.45l-0.47,0.17c1.78,6.07,3.69,12.09,5.54,18.14L161.99,100.31z M141.15,113.26l4.24,8.02
		c1.42,2.67,2.76,5.38,4.12,8.08c1.37,2.7,2.87,5.32,4.51,7.86c1.63,2.54,3.36,5.03,5.17,7.48c1.81,2.44,3.71,4.84,5.84,7.09
		l0.43-0.25c-0.89-2.97-2.02-5.81-3.22-8.6c-1.21-2.79-2.5-5.53-3.89-8.22c-1.38-2.69-2.9-5.3-4.55-7.83
		c-1.66-2.53-3.34-5.05-4.94-7.61l-4.82-7.68l-4.89-7.64c-3.31-5.06-6.56-10.16-9.93-15.19l-0.43,0.25
		c2.67,5.43,5.47,10.79,8.2,16.19L141.15,113.26z M119.67,75.53c0.38,0.95,0.48,2.05,1.21,2.79c0.34,0.38,0.73,0.74,1.21,1.05
		c0.46,0.31,0.98,0.6,1.67,0.78l0.3-0.18c0.18-0.69,0.2-1.28,0.16-1.84c-0.03-0.56-0.15-1.08-0.31-1.57c-0.28-1-1.18-1.64-1.82-2.44
		c-0.63-0.8-1.29-1.59-1.97-2.36c-0.69-0.77-1.37-1.53-2.12-2.27l-0.3,0.18c0.26,1.01,0.59,1.99,0.91,2.97
		C118.94,73.62,119.3,74.58,119.67,75.53z M121.44,127.72c2.56,3.26,5.1,6.53,7.62,9.82c2.54,3.27,5.19,6.45,7.96,9.53l4.22,4.57
		c1.44,1.49,2.85,3.01,4.34,4.47c2.93,2.95,5.93,5.83,9.14,8.55l0.38-0.32c-2.11-3.63-4.43-7.09-6.83-10.48
		c-1.18-1.71-2.43-3.36-3.65-5.05l-3.77-4.95c-2.55-3.26-5.22-6.43-8-9.5c-2.8-3.05-5.58-6.13-8.35-9.21l-16.54-18.55
		c-5.58-6.13-11.11-12.3-16.73-18.39l-0.38,0.32c5.02,6.6,10.14,13.11,15.2,19.67L121.44,127.72z M134.81,164.44
		c-1.33-0.9-2.68-1.77-3.97-2.72l-3.89-2.82l-3.93-2.76c-2.66-1.79-5.28-3.65-7.98-5.39l-0.32,0.38c2.19,2.36,4.47,4.61,6.7,6.92
		l3.4,3.4l3.45,3.34c1.15,1.11,2.25,2.29,3.36,3.44c1.12,1.15,2.33,2.19,3.65,3.1c2.66,1.8,5.45,3.44,8.79,4.43l0.32-0.38
		c-1.56-3.11-3.66-5.58-5.89-7.88C137.37,166.36,136.13,165.35,134.81,164.44z M86.91,129.65l3.52,3.4c1.18,1.13,2.3,2.33,3.44,3.5
		c1.15,1.17,2.38,2.23,3.72,3.16c2.7,1.84,5.55,3.52,8.93,4.55l0.32-0.38c-1.61-3.15-3.75-5.66-6.04-8
		c-1.15-1.16-2.41-2.19-3.76-3.12c-1.36-0.92-2.73-1.81-4.05-2.78l-3.96-2.88l-4.01-2.82c-2.71-1.83-5.37-3.73-8.12-5.51l-0.32,0.38
		c2.24,2.4,4.56,4.69,6.84,7.04L86.91,129.65z M86.27,161.72l9.49,5.87c3.15,1.98,6.3,3.97,9.42,5.99c3.14,2,6.36,3.87,9.65,5.6
		l4.98,2.53c1.68,0.8,3.34,1.64,5.05,2.4c3.39,1.56,6.84,3.03,10.41,4.27l0.25-0.43c-2.86-2.48-5.86-4.72-8.91-6.88
		c-1.51-1.1-3.07-2.12-4.61-3.18l-4.68-3.04c-3.15-1.98-6.37-3.83-9.67-5.56c-3.31-1.7-6.61-3.43-9.9-5.17l-9.83-5.29l-9.87-5.22
		c-6.61-3.43-13.18-6.92-19.82-10.29L58,143.77c6.24,4.06,12.55,8.01,18.82,12.02L86.27,161.72z M119.13,195.88
		c-1.72-0.78-3.5-1.42-5.33-1.91c-1.83-0.49-3.67-0.94-5.48-1.49l-5.43-1.62l-5.46-1.55c-3.66-0.97-7.29-2.02-10.98-2.93l-0.17,0.47
		c3.41,1.67,6.86,3.2,10.29,4.81l5.18,2.32l5.2,2.25c1.74,0.75,3.44,1.58,5.15,2.38c1.72,0.79,3.49,1.45,5.31,1.96
		c1.82,0.5,3.67,0.94,5.57,1.24c1.89,0.32,3.82,0.55,5.83,0.52l0.17-0.47c-1.53-1.32-3.15-2.38-4.8-3.35
		C122.55,197.53,120.85,196.67,119.13,195.88z M51.66,176.65c2.03,0.39,4.13,0.58,6.52-0.02l0.17-0.47c-1.44-2-3.17-3.2-4.98-4.21
		c-0.91-0.49-1.87-0.83-2.88-1.02c-1.02-0.19-2.04-0.35-3.04-0.6l-2.99-0.73l-3.02-0.66c-2.02-0.41-4.04-0.83-6.09-1.15l-0.17,0.47
		c1.78,1.07,3.6,2.05,5.41,3.03l2.73,1.43l2.76,1.36c0.92,0.45,1.81,0.98,2.71,1.49C49.7,176.08,50.65,176.44,51.66,176.65z
		 M75.79,209.98l9.71,2.06c3.23,0.71,6.46,1.43,9.69,2.19c3.23,0.73,6.48,1.32,9.77,1.75c3.28,0.43,6.58,0.76,9.9,0.99
		c3.32,0.23,6.65,0.37,10.03,0.24l0.09-0.49c-3.13-1.28-6.31-2.29-9.51-3.21c-3.2-0.92-6.41-1.74-9.64-2.45
		c-3.23-0.72-6.49-1.28-9.77-1.7c-3.29-0.39-6.57-0.82-9.85-1.26l-9.83-1.39l-9.84-1.32c-6.57-0.82-13.13-1.71-19.71-2.46
		l-0.09,0.49c6.44,1.54,12.91,2.95,19.37,4.43L75.79,209.98z M325.87,210.46l-5.56,0.64c-1.85,0.22-3.72,0.35-5.59,0.5
		c-1.86,0.17-3.7,0.47-5.51,0.95c-3.61,0.97-7.19,2.15-10.62,4.16l0.09,0.49c3.91,0.71,7.67,0.6,11.4,0.27
		c1.86-0.17,3.69-0.52,5.5-1c1.81-0.49,3.61-1.01,5.42-1.44l5.45-1.3l5.43-1.38c3.61-0.98,7.23-1.89,10.84-2.93l-0.09-0.49
		c-3.74,0.25-7.45,0.64-11.18,0.96L325.87,210.46z M396.73,199.4c-3.62,0.23-7.22,0.6-10.83,0.89l-5.4,0.53l-5.39,0.61
		c-1.79,0.21-3.61,0.33-5.41,0.47c-1.8,0.16-3.58,0.45-5.33,0.91c-3.5,0.95-6.95,2.11-10.27,4.09l0.09,0.49
		c3.79,0.73,7.44,0.64,11.05,0.34c1.8-0.16,3.58-0.5,5.32-0.96c1.75-0.48,3.49-0.99,5.25-1.41l5.27-1.27l5.26-1.35
		c3.49-0.96,7-1.84,10.48-2.86L396.73,199.4z M326.63,187.83c-3.7,1.18-7.35,2.49-10.95,3.96l-5.37,2.27
		c-1.77,0.8-3.56,1.56-5.32,2.41c-3.53,1.65-7.02,3.4-10.42,5.4l0.17,0.47c3.89-0.65,7.69-1.56,11.46-2.56
		c1.89-0.48,3.75-1.05,5.62-1.57l5.57-1.71c3.7-1.19,7.34-2.53,10.93-4.01c3.58-1.5,7.18-2.97,10.78-4.43l10.82-4.3l10.8-4.37
		c7.18-2.97,14.38-5.87,21.54-8.9l-0.17-0.47c-7.43,2.28-14.81,4.69-22.22,7.02l-11.08,3.59l-11.05,3.66
		C334.04,185.5,330.34,186.68,326.63,187.83z M322.08,166.67l-7.12,3.72c-2.37,1.24-4.79,2.41-7.19,3.6
		c-2.4,1.2-4.72,2.53-6.96,3.99c-2.24,1.47-4.44,3-6.58,4.65c-2.14,1.64-4.24,3.36-6.2,5.32l0.25,0.43c2.67-0.72,5.21-1.67,7.7-2.71
		c2.5-1.02,4.93-2.16,7.32-3.37c2.39-1.21,4.7-2.56,6.94-4.03c2.23-1.48,4.45-2.99,6.71-4.42l6.78-4.3l6.74-4.37
		c4.46-2.97,8.97-5.87,13.4-8.89l-0.25-0.43c-4.83,2.33-9.6,4.78-14.4,7.16L322.08,166.67z M362.78,146.51
		c0.71-0.12,1.38-0.32,2.02-0.56c1.3-0.45,2.24-1.53,3.34-2.33c1.1-0.8,2.18-1.63,3.25-2.48c1.05-0.88,2.13-1.72,3.16-2.64
		l-0.18-0.3c-1.31,0.43-2.57,0.95-3.86,1.42c-1.27,0.5-2.53,1.02-3.78,1.57c-1.24,0.55-2.65,0.82-3.69,1.73
		c-0.53,0.43-1.04,0.91-1.5,1.46c-0.46,0.55-0.89,1.16-1.23,1.93l0.18,0.3C361.33,146.71,362.07,146.64,362.78,146.51z
		 M295.35,164.76l3.46-3.35l3.42-3.4c2.24-2.32,4.52-4.58,6.72-6.94l-0.32-0.38c-2.71,1.75-5.33,3.61-8,5.41l-3.95,2.77l-3.9,2.83
		c-1.3,0.95-2.65,1.82-3.99,2.72c-1.33,0.91-2.57,1.92-3.7,3.07c-2.24,2.31-4.35,4.78-5.91,7.9l0.32,0.38
		c3.34-1,6.14-2.64,8.81-4.45c1.32-0.91,2.54-1.96,3.66-3.11C293.09,167.05,294.19,165.87,295.35,164.76z M286.94,105.6
		c1.28-1.49,2.44-3.05,3.54-4.65c1.09-1.6,2.05-3.28,2.88-5.03c0.82-1.76,1.61-3.53,2.49-5.26l2.61-5.19l2.54-5.23
		c1.64-3.51,3.34-6.99,4.93-10.54l-0.43-0.25c-2.28,3.15-4.44,6.36-6.66,9.54l-3.26,4.81l-3.19,4.85c-1.06,1.62-2.2,3.19-3.31,4.78
		c-1.1,1.59-2.08,3.26-2.92,5.01c-0.84,1.75-1.61,3.53-2.26,5.39c-0.66,1.85-1.25,3.74-1.59,5.77l0.43,0.25
		C284.33,108.56,285.68,107.1,286.94,105.6z M253.05,124.03c1.34-2.67,2.59-5.37,3.74-8.12c1.15-2.74,2.16-5.53,3.02-8.38
		c0.86-2.85,1.68-5.71,2.6-8.53l2.73-8.48l2.66-8.51c1.71-5.69,3.5-11.36,5.15-17.08l-0.47-0.17c-2.41,5.44-4.69,10.93-7.03,16.4
		l-3.43,8.23l-3.36,8.25c-1.12,2.75-2.32,5.47-3.49,8.21c-1.17,2.74-2.19,5.52-3.07,8.36c-0.88,2.84-1.66,5.71-2.35,8.62
		c-0.69,2.91-1.29,5.85-1.63,8.89l0.47,0.17C250.28,129.34,251.71,126.7,253.05,124.03z M227.34,145.46
		c1.15-2.39,2.03-4.83,2.82-7.28c0.8-2.45,1.47-4.93,2.06-7.42c0.59-2.49,1.02-5.01,1.31-7.55c0.28-2.54,0.52-5.09,0.86-7.63l1-7.61
		l0.92-7.62c0.56-5.09,1.18-10.17,1.68-15.27L237.5,85c-1.28,4.96-2.43,9.95-3.65,14.92l-1.74,7.47l-1.66,7.49
		c-0.55,2.5-1.19,4.98-1.8,7.46c-0.6,2.49-1.05,5-1.36,7.54c-0.3,2.54-0.52,5.1-0.6,7.68c-0.1,2.58-0.11,5.17,0.15,7.81
		L227.34,145.46z M241.13,64.81l0.34,0.06c0.62-0.64,1.06-1.32,1.43-2.01c0.38-0.69,0.67-1.39,0.9-2.11
		c0.52-1.42,0.32-2.96,0.43-4.45c0.11-1.49,0.2-2.98,0.26-4.48c0.03-1.5,0.1-3,0.08-4.51l-0.34-0.06c-0.53,1.42-0.97,2.85-1.46,4.27
		c-0.46,1.43-0.89,2.86-1.29,4.3c-0.4,1.44-1.12,2.82-1.12,4.33c-0.03,0.75,0,1.51,0.12,2.29
		C240.59,63.21,240.77,63.99,241.13,64.81z"/>
</g>
<g id="Layer_4">
</g>
<g id="Layer_5">
</g>
<g id="Layer_6">
</g>
<g id="Layer_7">
</g>
<g id="Layer_8">
</g>
<g id="Layer_9">
</g>
<g id="Layer_10">
</g>
<g id="Layer_13">
</g>
<g id="Layer_11">
</g>
<g id="Layer_12">
</g>
</svg>
